<svg width="89" height="89" viewBox="0 0 89 89" fill="none" xmlns="http://www.w3.org/2000/svg">
<path d="M73.7959 46.9475C73.2014 46.2708 72.8735 45.4008 72.8735 44.5C72.8735 43.5992 73.2014 42.7292 73.7959 42.0525L78.5426 36.7125C79.0656 36.1291 79.3904 35.3949 79.4704 34.6155C79.5503 33.836 79.3813 33.0512 78.9876 32.3737L71.5709 19.5429C71.1812 18.8662 70.5878 18.3298 69.8753 18.0102C69.1628 17.6906 68.3675 17.604 67.603 17.7629L60.6313 19.1721C59.7442 19.3554 58.8207 19.2076 58.0351 18.7567C57.2494 18.3059 56.656 17.583 56.3667 16.7246L54.1046 9.93833C53.8559 9.20178 53.3819 8.56204 52.7497 8.10954C52.1176 7.65703 51.3592 7.41466 50.5817 7.41666H35.7484C34.9397 7.37446 34.1395 7.5981 33.4699 8.05344C32.8003 8.50877 32.2981 9.17078 32.0401 9.93833L29.9634 16.7246C29.6741 17.583 29.0807 18.3059 28.2951 18.7567C27.5094 19.2076 26.5859 19.3554 25.6988 19.1721L18.5417 17.7629C17.8169 17.6605 17.078 17.7749 16.4181 18.0916C15.7582 18.4084 15.2068 18.9133 14.8334 19.5429L7.41673 32.3737C7.01311 33.0437 6.83164 33.824 6.89824 34.6033C6.96484 35.3825 7.27612 36.1208 7.78756 36.7125L12.4971 42.0525C13.0917 42.7292 13.4195 43.5992 13.4195 44.5C13.4195 45.4008 13.0917 46.2708 12.4971 46.9475L7.78756 52.2875C7.27612 52.8792 6.96484 53.6175 6.89824 54.3967C6.83164 55.176 7.01311 55.9563 7.41673 56.6262L14.8334 69.4571C15.2231 70.1338 15.8165 70.6702 16.529 70.9898C17.2415 71.3094 18.0367 71.396 18.8013 71.2371L25.773 69.8279C26.6601 69.6446 27.5836 69.7924 28.3692 70.2432C29.1549 70.6941 29.7483 71.417 30.0376 72.2754L32.2996 79.0617C32.5577 79.8292 33.0598 80.4912 33.7295 80.9466C34.3991 81.4019 35.1993 81.6255 36.008 81.5833H50.8413C51.6187 81.5853 52.3771 81.343 53.0093 80.8905C53.6415 80.438 54.1155 79.7982 54.3642 79.0617L56.6263 72.2754C56.9156 71.417 57.509 70.6941 58.2946 70.2432C59.0803 69.7924 60.0038 69.6446 60.8909 69.8279L67.8626 71.2371C68.6271 71.396 69.4223 71.3094 70.1348 70.9898C70.8473 70.6702 71.4408 70.1338 71.8305 69.4571L79.2472 56.6262C79.6409 55.9488 79.8099 55.164 79.7299 54.3845C79.65 53.6051 79.3252 52.8709 78.8021 52.2875L73.7959 46.9475ZM68.2705 51.9167L71.2371 55.2542L66.4905 63.4867L62.1146 62.5967C59.4438 62.0507 56.6655 62.5044 54.3071 63.8716C51.9487 65.2388 50.1744 67.4243 49.3209 70.0133L47.9117 74.1667H38.4184L37.0834 69.9392C36.2299 67.3502 34.4556 65.1646 32.0972 63.7974C29.7388 62.4302 26.9605 61.9766 24.2896 62.5225L19.9138 63.4125L15.093 55.2171L18.0596 51.8796C19.884 49.8399 20.8926 47.1994 20.8926 44.4629C20.8926 41.7264 19.884 39.0859 18.0596 37.0462L15.093 33.7087L19.8396 25.5504L24.2155 26.4404C26.8863 26.9864 29.6646 26.5327 32.023 25.1655C34.3814 23.7983 36.1558 21.6128 37.0092 19.0237L38.4184 14.8333H47.9117L49.3209 19.0608C50.1744 21.6498 51.9487 23.8354 54.3071 25.2026C56.6655 26.5698 59.4438 27.0234 62.1146 26.4775L66.4905 25.5875L71.2371 33.82L68.2705 37.1575C66.4666 39.1925 65.4706 41.8177 65.4706 44.5371C65.4706 47.2565 66.4666 49.8817 68.2705 51.9167ZM43.1651 29.6667C40.2313 29.6667 37.3634 30.5366 34.9241 32.1665C32.4848 33.7964 30.5835 36.1131 29.4608 38.8235C28.3381 41.534 28.0444 44.5165 28.6167 47.3938C29.1891 50.2712 30.6018 52.9143 32.6763 54.9887C34.7508 57.0632 37.3938 58.476 40.2712 59.0483C43.1486 59.6207 46.1311 59.3269 48.8415 58.2042C51.552 57.0815 53.8686 55.1803 55.4985 52.741C57.1284 50.3016 57.9984 47.4338 57.9984 44.5C57.9984 40.566 56.4356 36.793 53.6538 34.0112C50.872 31.2295 47.0991 29.6667 43.1651 29.6667ZM43.1651 51.9167C41.6982 51.9167 40.2642 51.4817 39.0446 50.6667C37.8249 49.8518 36.8743 48.6935 36.313 47.3382C35.7516 45.983 35.6047 44.4918 35.8909 43.0531C36.1771 41.6144 36.8834 40.2929 37.9207 39.2556C38.9579 38.2184 40.2794 37.512 41.7181 37.2258C43.1568 36.9397 44.6481 37.0865 46.0033 37.6479C47.3585 38.2092 48.5168 39.1599 49.3318 40.3795C50.1467 41.5992 50.5817 43.0331 50.5817 44.5C50.5817 46.467 49.8003 48.3535 48.4094 49.7444C47.0185 51.1353 45.1321 51.9167 43.1651 51.9167Z" fill="#FFCD29"/>
</svg>
