<svg width="195" height="195" viewBox="0 0 195 195" fill="none" xmlns="http://www.w3.org/2000/svg">
<path d="M41.5167 14.6611L32.9367 23.2289L45.7031 35.9893L54.2709 27.4214L41.5167 14.6611ZM153.489 14.6611L140.723 27.4214L149.297 35.9893L162.057 23.235L153.489 14.6611ZM97.5 18.4636C95.4891 18.4799 93.4578 18.6099 91.4062 18.8536H91.2234C66.5072 21.6872 46.8366 41.6564 43.418 66.263C40.688 86.0677 48.8536 104.026 62.4609 115.592C68.0262 120.343 71.7909 126.861 73.125 134.056V170.618H87.0187C89.1394 174.256 93.0089 176.712 97.5 176.712C101.991 176.712 105.861 174.256 107.981 170.618H121.875V146.243H122.448V139.004C122.448 130.071 127.091 121.064 134.635 114.062C144.727 103.959 152.344 89.6082 152.344 73.1246C152.344 43.0214 127.567 18.1833 97.5 18.4636ZM97.5 30.6511C121.052 30.3221 140.156 49.6027 140.156 73.1246C140.156 85.8849 134.245 97.1218 126.061 105.3L126.256 105.495C118.127 112.997 112.869 123.099 111.388 134.062H84.7336C83.393 123.617 78.9141 113.508 70.4498 106.256C59.6822 97.1157 53.2655 83.3438 55.4105 67.7925C58.0734 48.5972 73.6491 33.1618 92.7347 31.0472C94.3106 30.8287 95.8974 30.6985 97.4878 30.6572L97.5 30.6511ZM12.1875 73.1246V85.3121H30.4688V73.1246H12.1875ZM164.531 73.1246V85.3121H182.812V73.1246H164.531ZM45.7031 122.447L32.9428 135.202L41.5167 143.775L54.2648 131.015L45.7031 122.447ZM149.297 122.447L140.729 131.015L153.483 143.775L162.057 135.202L149.297 122.447ZM85.3125 146.25H109.688V158.437H85.3125V146.25Z" fill="#FFCD29"/>
</svg>
