<svg width="195" height="195" viewBox="0 0 195 195" fill="none" xmlns="http://www.w3.org/2000/svg">
<path d="M32.5 130H162.5V40.625H32.5V130ZM105.625 146.25V162.5H138.125V178.75H56.875V162.5H89.375V146.25H24.31C23.243 146.242 22.1881 146.023 21.2056 145.607C20.2231 145.191 19.3322 144.585 18.5837 143.824C17.8353 143.064 17.244 142.163 16.8436 141.174C16.4431 140.185 16.2414 139.127 16.25 138.06V32.565C16.25 28.0394 19.9469 24.375 24.31 24.375H170.69C175.143 24.375 178.75 28.0231 178.75 32.5569V138.06C178.75 142.586 175.053 146.25 170.69 146.25H105.625Z" fill="#FFCD29"/>
</svg>
