<svg width="195" height="195" viewBox="0 0 195 195" fill="none" xmlns="http://www.w3.org/2000/svg">
<path fill-rule="evenodd" clip-rule="evenodd" d="M48.75 87.75C53.9217 87.75 58.8816 85.6955 62.5386 82.0386C66.1955 78.3816 68.25 73.4217 68.25 68.25C68.25 63.0783 66.1955 58.1184 62.5386 54.4614C58.8816 50.8045 53.9217 48.75 48.75 48.75C43.5783 48.75 38.6184 50.8045 34.9614 54.4614C31.3045 58.1184 29.25 63.0783 29.25 68.25C29.25 73.4217 31.3045 78.3816 34.9614 82.0386C38.6184 85.6955 43.5783 87.75 48.75 87.75ZM48.75 97.5C52.5912 97.5 56.3947 96.7434 59.9435 95.2735C63.4923 93.8035 66.7168 91.649 69.4329 88.9329C72.149 86.2168 74.3035 82.9923 75.7735 79.4435C77.2434 75.8947 78 72.0912 78 68.25C78 64.4088 77.2434 60.6053 75.7735 57.0565C74.3035 53.5077 72.149 50.2832 69.4329 47.5671C66.7168 44.851 63.4923 42.6965 59.9435 41.2265C56.3947 39.7566 52.5912 39 48.75 39C40.9924 39 33.5526 42.0817 28.0671 47.5671C22.5817 53.0526 19.5 60.4924 19.5 68.25C19.5 76.0076 22.5817 83.4474 28.0671 88.9329C33.5526 94.4183 40.9924 97.5 48.75 97.5Z" fill="#FFCD29"/>
<path fill-rule="evenodd" clip-rule="evenodd" d="M37.5765 86.7361C38.0305 87.189 38.3907 87.7269 38.6364 88.3192C38.8822 88.9115 39.0087 89.5464 39.0087 90.1876C39.0087 90.8289 38.8822 91.4638 38.6364 92.056C38.3907 92.6483 38.0305 93.1863 37.5765 93.6391L34.281 96.9249C27.939 103.269 24.3758 111.871 24.375 120.842V138.938C24.375 140.231 23.8614 141.471 22.9471 142.385C22.0329 143.299 20.7929 143.813 19.5 143.813C18.2071 143.813 16.9671 143.299 16.0529 142.385C15.1386 141.471 14.625 140.231 14.625 138.938V120.842C14.6264 109.286 19.2171 98.2035 27.3878 90.0316L30.6735 86.7361C31.1263 86.2821 31.6643 85.9219 32.2566 85.6762C32.8488 85.4304 33.4838 85.3039 34.125 85.3039C34.7662 85.3039 35.4012 85.4304 35.9934 85.6762C36.5857 85.9219 37.1237 86.2821 37.5765 86.7361ZM152.548 83.8111C152.095 84.264 151.734 84.8019 151.489 85.3942C151.243 85.9865 151.116 86.6214 151.116 87.2626C151.116 87.9039 151.243 88.5388 151.489 89.1311C151.734 89.7233 152.095 90.2613 152.548 90.7141L155.844 93.9999C162.186 100.344 165.749 108.946 165.75 117.917V138.938C165.75 140.231 166.264 141.471 167.178 142.385C168.092 143.299 169.332 143.813 170.625 143.813C171.918 143.813 173.158 143.299 174.072 142.385C174.986 141.471 175.5 140.231 175.5 138.938V117.917C175.499 106.361 170.908 95.2785 162.737 87.1066L159.452 83.8111C158.999 83.3571 158.461 82.9969 157.868 82.7512C157.276 82.5054 156.641 82.3789 156 82.3789C155.359 82.3789 154.724 82.5054 154.132 82.7512C153.539 82.9969 153.001 83.3571 152.548 83.8111Z" fill="#FFCD29"/>
<path fill-rule="evenodd" clip-rule="evenodd" d="M136.5 87.75C131.328 87.75 126.368 85.6955 122.711 82.0386C119.054 78.3816 117 73.4217 117 68.25C117 63.0783 119.054 58.1184 122.711 54.4614C126.368 50.8045 131.328 48.75 136.5 48.75C141.672 48.75 146.632 50.8045 150.289 54.4614C153.946 58.1184 156 63.0783 156 68.25C156 73.4217 153.946 78.3816 150.289 82.0386C146.632 85.6955 141.672 87.75 136.5 87.75ZM136.5 97.5C132.659 97.5 128.855 96.7434 125.307 95.2735C121.758 93.8035 118.533 91.649 115.817 88.9329C113.101 86.2168 110.946 82.9923 109.477 79.4435C108.007 75.8947 107.25 72.0912 107.25 68.25C107.25 64.4088 108.007 60.6053 109.477 57.0565C110.946 53.5077 113.101 50.2832 115.817 47.5671C118.533 44.851 121.758 42.6965 125.307 41.2265C128.855 39.7566 132.659 39 136.5 39C144.258 39 151.697 42.0817 157.183 47.5671C162.668 53.0526 165.75 60.4924 165.75 68.25C165.75 76.0076 162.668 83.4474 157.183 88.9329C151.697 94.4183 144.258 97.5 136.5 97.5ZM92.625 129.188C86.1603 129.188 79.9605 131.756 75.3893 136.327C70.8181 140.898 68.25 147.098 68.25 153.562V166.237C68.25 167.53 67.7364 168.77 66.8221 169.685C65.9079 170.599 64.6679 171.112 63.375 171.112C62.0821 171.112 60.8421 170.599 59.9279 169.685C59.0136 168.77 58.5 167.53 58.5 166.237V153.562C58.5 144.512 62.0953 135.832 68.495 129.432C74.8947 123.033 83.5745 119.438 92.625 119.438C101.676 119.438 110.355 123.033 116.755 129.432C123.155 135.832 126.75 144.512 126.75 153.562V166.237C126.75 167.53 126.236 168.77 125.322 169.685C124.408 170.599 123.168 171.112 121.875 171.112C120.582 171.112 119.342 170.599 118.428 169.685C117.514 168.77 117 167.53 117 166.237V153.562C117 150.362 116.37 147.192 115.145 144.235C113.92 141.277 112.124 138.59 109.861 136.327C107.597 134.063 104.91 132.268 101.953 131.043C98.9956 129.818 95.826 129.188 92.625 129.188Z" fill="#FFCD29"/>
<path fill-rule="evenodd" clip-rule="evenodd" d="M92.625 114.562C97.7967 114.562 102.757 112.508 106.414 108.851C110.071 105.194 112.125 100.234 112.125 95.0625C112.125 89.8908 110.071 84.9309 106.414 81.2739C102.757 77.617 97.7967 75.5625 92.625 75.5625C87.4533 75.5625 82.4934 77.617 78.8364 81.2739C75.1795 84.9309 73.125 89.8908 73.125 95.0625C73.125 100.234 75.1795 105.194 78.8364 108.851C82.4934 112.508 87.4533 114.562 92.625 114.562ZM92.625 124.312C100.383 124.312 107.822 121.231 113.308 115.745C118.793 110.26 121.875 102.82 121.875 95.0625C121.875 87.3049 118.793 79.8651 113.308 74.3796C107.822 68.8942 100.383 65.8125 92.625 65.8125C84.8674 65.8125 77.4276 68.8942 71.9421 74.3796C66.4567 79.8651 63.375 87.3049 63.375 95.0625C63.375 102.82 66.4567 110.26 71.9421 115.745C77.4276 121.231 84.8674 124.312 92.625 124.312Z" fill="#FFCD29"/>
</svg>
