<svg width="195" height="195" viewBox="0 0 195 195" fill="none" xmlns="http://www.w3.org/2000/svg">
<path d="M125.531 99.9375L114.562 110.906L125.531 121.875L110.906 136.5L163.312 188.906C170.625 196.219 181.594 196.219 188.906 188.906C196.219 181.594 196.219 170.625 188.906 163.312L125.531 99.9375ZM173.062 182.812C168.188 182.812 163.312 179.156 163.312 173.062C163.312 168.188 166.969 163.312 173.062 163.312C179.156 163.312 182.812 166.969 182.812 173.062C182.812 179.156 179.156 182.812 173.062 182.812ZM43.875 97.5L54.8438 90.1875L73.125 69.4688L84.0938 80.4375L95.0625 69.4688L93.8438 68.25C96.2812 62.1562 97.5 56.0625 97.5 48.75C97.5 21.9375 75.5625 0 48.75 0C41.4375 0 35.3438 1.21875 29.25 3.65625L64.5938 39L39 64.5938L3.65625 29.25C1.21875 35.3438 0 41.4375 0 48.75C0 74.3438 19.5 93.8438 43.875 97.5Z" fill="#FFCD29"/>
<path d="M97.5 131.625L108.469 121.875L97.5 110.906L166.969 41.4375L181.594 36.5625L195 9.75L186.469 1.21875L158.438 13.4062L152.344 28.0312L84.0938 97.5L73.125 86.5312L63.375 97.5C63.375 97.5 73.125 104.812 62.1562 115.781C56.0625 121.875 46.3125 114.562 28.0312 132.844L2.4375 158.438C2.4375 158.438 -4.875 170.625 9.75 185.25C24.375 199.875 36.5625 192.562 36.5625 192.562L62.1562 166.969C79.2188 149.906 73.125 138.938 78 134.062C88.9688 123.094 97.5 131.625 97.5 131.625ZM59.7188 126.75L68.25 135.281L21.9375 181.594L13.4063 173.062L59.7188 126.75Z" fill="#FFCD29"/>
</svg>
